<mxfile host="app.diagrams.net" modified="2022-11-10T22:47:37.970Z" agent="5.0 (X11; Linux x86_64) AppleWebKit/537.36 (KHTML, like Gecko) Chrome/98.0.4758.102 Safari/537.36" etag="brrawSGOPKjhq7douBUg" version="20.5.3" type="github">
  <diagram id="m_iuqy4thHgs1sQ6rsIs" name="Page-1">
    <mxGraphModel dx="4730" dy="1947" grid="1" gridSize="10" guides="1" tooltips="1" connect="1" arrows="1" fold="1" page="1" pageScale="1" pageWidth="827" pageHeight="1169" math="0" shadow="0">
      <root>
        <mxCell id="0" />
        <mxCell id="1" parent="0" />
        <mxCell id="PKU2KmVBedQqIv4Sg6Ox-1" value="Sanity Check B" style="rounded=0;whiteSpace=wrap;html=1;shadow=0;glass=0;comic=0;startSize=50;strokeColor=none;strokeWidth=1;fillColor=#f5f5f5;fontColor=#413565;opacity=75;align=left;verticalAlign=top;fontSize=24;textOpacity=50;perimeterSpacing=0;spacingTop=0;spacing=10;" vertex="1" parent="1">
          <mxGeometry x="90" y="810" width="520" height="770" as="geometry" />
        </mxCell>
        <mxCell id="PKU2KmVBedQqIv4Sg6Ox-2" value="Sanity Check A" style="rounded=0;whiteSpace=wrap;html=1;shadow=0;glass=0;comic=0;startSize=50;strokeColor=none;strokeWidth=1;fillColor=#f5f5f5;fontColor=#413565;opacity=75;align=left;verticalAlign=top;fontSize=24;textOpacity=50;perimeterSpacing=0;spacingTop=0;spacing=10;" vertex="1" parent="1">
          <mxGeometry x="-530" y="810" width="520" height="770" as="geometry" />
        </mxCell>
        <mxCell id="PKU2KmVBedQqIv4Sg6Ox-3" value="Third party" style="rounded=0;whiteSpace=wrap;html=1;shadow=0;glass=0;dashed=1;comic=0;labelBackgroundColor=none;startSize=23;strokeColor=none;strokeWidth=3;fillColor=#CCCCFF;gradientColor=none;fontFamily=Helvetica;fontSize=24;fontColor=#413565;align=left;opacity=50;verticalAlign=top;fontStyle=1;textOpacity=50;" vertex="1" parent="1">
          <mxGeometry x="500" y="-499.1470588235292" width="320" height="560" as="geometry" />
        </mxCell>
        <mxCell id="PKU2KmVBedQqIv4Sg6Ox-4" style="comic=0;jumpStyle=none;html=1;entryX=0;entryY=0.5;shadow=0;startArrow=none;startFill=0;endArrow=classic;endFill=1;jettySize=auto;orthogonalLoop=1;strokeColor=#6963C5;strokeWidth=2;fontFamily=Helvetica;fontSize=12;fontColor=#413565;rounded=1;edgeStyle=orthogonalEdgeStyle;elbow=vertical;" edge="1" parent="1" source="PKU2KmVBedQqIv4Sg6Ox-5" target="PKU2KmVBedQqIv4Sg6Ox-7">
          <mxGeometry relative="1" as="geometry" />
        </mxCell>
        <mxCell id="PKU2KmVBedQqIv4Sg6Ox-5" value="&lt;p style=&quot;margin: 0px ; margin-top: 4px ; text-align: center&quot;&gt;&lt;b&gt;masterTkConfig&lt;/b&gt;&lt;/p&gt;&lt;hr&gt;&lt;p style=&quot;margin: 0px ; text-align: center&quot;&gt;Tank Config,&lt;/p&gt;&lt;p style=&quot;margin: 0px ; text-align: center&quot;&gt;common for all productions&amp;nbsp;&lt;/p&gt;" style="shape=rect;html=1;overflow=auto;rounded=1;shadow=0;glass=0;comic=0;startSize=50;strokeColor=#6963C5;strokeWidth=2;fillColor=#CCCCFF;fontSize=12;fontColor=#413565;align=center;arcSize=5;labelPosition=center;verticalLabelPosition=middle;verticalAlign=top;labelBackgroundColor=none;overflow=fill;gradientColor=none;gradientDirection=north;perimeterSpacing=0;spacingTop=0;spacingRight=0;whiteSpace=wrap;" vertex="1" parent="1">
          <mxGeometry x="-900" y="182.5" width="200" height="75" as="geometry" />
        </mxCell>
        <mxCell id="PKU2KmVBedQqIv4Sg6Ox-6" style="comic=0;jumpStyle=none;html=1;entryX=0;entryY=0.5;shadow=0;startArrow=none;startFill=0;endArrow=classic;endFill=1;jettySize=auto;orthogonalLoop=1;strokeColor=#6963C5;strokeWidth=2;fontFamily=Helvetica;fontSize=12;fontColor=#413565;rounded=1;edgeStyle=orthogonalEdgeStyle;elbow=vertical;" edge="1" parent="1" source="PKU2KmVBedQqIv4Sg6Ox-7" target="PKU2KmVBedQqIv4Sg6Ox-11">
          <mxGeometry relative="1" as="geometry" />
        </mxCell>
        <mxCell id="PKU2KmVBedQqIv4Sg6Ox-7" value="&lt;p style=&quot;margin: 0px ; margin-top: 4px ; text-align: center&quot;&gt;&lt;b&gt;&lt;font style=&quot;font-size: 12px&quot;&gt;paw2TkConfig&lt;/font&gt;&lt;/b&gt;&lt;/p&gt;&lt;hr&gt;&lt;p style=&quot;margin: 0px ; text-align: center&quot;&gt;Tank config for the production, we describe here some environment variables like PROD and PROD_ID&lt;/p&gt;" style="shape=rect;html=1;overflow=auto;rounded=1;shadow=0;glass=0;comic=0;startSize=50;strokeColor=#6963C5;strokeWidth=2;fillColor=#CCCCFF;fontSize=12;fontColor=#413565;align=center;arcSize=5;labelPosition=center;verticalLabelPosition=middle;verticalAlign=top;labelBackgroundColor=none;whiteSpace=wrap;overflow=fill;gradientColor=none;gradientDirection=north;fontFamily=Helvetica;" vertex="1" parent="1">
          <mxGeometry x="-580" y="170" width="200" height="100" as="geometry" />
        </mxCell>
        <mxCell id="PKU2KmVBedQqIv4Sg6Ox-8" style="comic=0;jumpStyle=none;html=1;entryX=0;entryY=0.5;shadow=0;startArrow=none;startFill=0;endArrow=classic;endFill=1;jettySize=auto;orthogonalLoop=1;strokeColor=#6963C5;strokeWidth=2;fontFamily=Helvetica;fontSize=12;fontColor=#413565;rounded=1;edgeStyle=orthogonalEdgeStyle;elbow=vertical;" edge="1" parent="1" source="PKU2KmVBedQqIv4Sg6Ox-9" target="PKU2KmVBedQqIv4Sg6Ox-11">
          <mxGeometry relative="1" as="geometry" />
        </mxCell>
        <mxCell id="PKU2KmVBedQqIv4Sg6Ox-9" value="&lt;p style=&quot;margin: 0px ; margin-top: 4px ; text-align: center&quot;&gt;&lt;b&gt;canCore&lt;/b&gt;&lt;/p&gt;&lt;hr&gt;&lt;p style=&quot;margin: 0px ; text-align: center&quot;&gt;Pipeline Core&lt;/p&gt;" style="shape=rect;html=1;overflow=auto;rounded=1;shadow=0;glass=0;comic=0;startSize=50;strokeColor=#6963C5;strokeWidth=2;fillColor=#CCCCFF;fontSize=12;fontColor=#413565;align=center;arcSize=5;labelPosition=center;verticalLabelPosition=middle;verticalAlign=top;labelBackgroundColor=none;whiteSpace=wrap;overflow=fill;gradientColor=none;gradientDirection=north;" vertex="1" parent="1">
          <mxGeometry x="-580" y="455" width="200" height="75" as="geometry" />
        </mxCell>
        <mxCell id="PKU2KmVBedQqIv4Sg6Ox-10" style="edgeStyle=orthogonalEdgeStyle;rounded=1;comic=0;jumpStyle=none;html=1;entryX=0;entryY=0.5;shadow=0;startArrow=none;startFill=0;endArrow=classic;endFill=1;jettySize=auto;orthogonalLoop=1;strokeColor=#6963C5;strokeWidth=2;fontFamily=Helvetica;fontSize=12;fontColor=#413565;" edge="1" parent="1" source="PKU2KmVBedQqIv4Sg6Ox-11" target="PKU2KmVBedQqIv4Sg6Ox-16">
          <mxGeometry relative="1" as="geometry" />
        </mxCell>
        <mxCell id="PKU2KmVBedQqIv4Sg6Ox-11" value="&lt;p style=&quot;margin: 0px ; margin-top: 4px ; text-align: center&quot;&gt;&lt;b&gt;paw2Core&lt;/b&gt;&lt;/p&gt;&lt;hr&gt;&lt;p style=&quot;margin: 0px ; text-align: center&quot;&gt;Pipeline Core&lt;/p&gt;" style="shape=rect;html=1;overflow=auto;rounded=1;shadow=0;glass=0;comic=0;startSize=50;strokeColor=#6963C5;strokeWidth=2;fillColor=#CCCCFF;fontSize=12;fontColor=#413565;align=center;arcSize=5;labelPosition=center;verticalLabelPosition=middle;verticalAlign=top;labelBackgroundColor=none;whiteSpace=wrap;overflow=fill;gradientColor=none;gradientDirection=north;" vertex="1" parent="1">
          <mxGeometry x="-260" y="319" width="200" height="75" as="geometry" />
        </mxCell>
        <mxCell id="PKU2KmVBedQqIv4Sg6Ox-12" style="edgeStyle=orthogonalEdgeStyle;rounded=1;comic=0;jumpStyle=none;html=1;entryX=0;entryY=0.5;shadow=0;startArrow=none;startFill=0;endArrow=classic;endFill=1;jettySize=auto;orthogonalLoop=1;strokeColor=#6963C5;strokeWidth=2;fontFamily=Helvetica;fontSize=12;fontColor=#413565;" edge="1" parent="1" source="PKU2KmVBedQqIv4Sg6Ox-13" target="PKU2KmVBedQqIv4Sg6Ox-9">
          <mxGeometry relative="1" as="geometry" />
        </mxCell>
        <mxCell id="PKU2KmVBedQqIv4Sg6Ox-13" value="&lt;p style=&quot;margin: 0px ; margin-top: 4px ; text-align: center&quot;&gt;&lt;b&gt;corePython&lt;/b&gt;&lt;/p&gt;&lt;hr&gt;&lt;p style=&quot;margin: 0px ; text-align: center&quot;&gt;core Python functions&lt;/p&gt;" style="shape=rect;html=1;overflow=auto;rounded=1;shadow=0;glass=0;comic=0;startSize=50;strokeColor=#6963C5;strokeWidth=2;fillColor=#CCCCFF;fontSize=12;fontColor=#413565;align=center;arcSize=5;labelPosition=center;verticalLabelPosition=middle;verticalAlign=top;labelBackgroundColor=none;whiteSpace=wrap;overflow=fill;gradientColor=none;gradientDirection=north;" vertex="1" parent="1">
          <mxGeometry x="-900" y="455" width="200" height="75" as="geometry" />
        </mxCell>
        <mxCell id="PKU2KmVBedQqIv4Sg6Ox-14" style="edgeStyle=orthogonalEdgeStyle;rounded=1;comic=0;jumpStyle=none;html=1;entryX=0;entryY=0.5;shadow=0;startArrow=none;startFill=0;endArrow=classic;endFill=1;jettySize=auto;orthogonalLoop=1;strokeColor=#6963C5;strokeWidth=2;fontFamily=Helvetica;fontSize=12;fontColor=#413565;" edge="1" parent="1" source="PKU2KmVBedQqIv4Sg6Ox-15" target="PKU2KmVBedQqIv4Sg6Ox-9">
          <mxGeometry relative="1" as="geometry" />
        </mxCell>
        <mxCell id="PKU2KmVBedQqIv4Sg6Ox-15" value="&lt;p style=&quot;margin: 0px ; margin-top: 4px ; text-align: center&quot;&gt;&lt;b&gt;...&lt;/b&gt;&lt;/p&gt;&lt;hr&gt;&lt;p style=&quot;margin: 0px ; text-align: center&quot;&gt;...&lt;/p&gt;" style="shape=rect;html=1;overflow=auto;rounded=1;shadow=0;glass=0;comic=0;startSize=50;strokeColor=#6963C5;strokeWidth=2;fillColor=#CCCCFF;fontSize=12;fontColor=#413565;align=center;arcSize=5;labelPosition=center;verticalLabelPosition=middle;verticalAlign=top;labelBackgroundColor=none;whiteSpace=wrap;overflow=fill;gradientColor=none;gradientDirection=north;" vertex="1" parent="1">
          <mxGeometry x="-900" y="610" width="200" height="75" as="geometry" />
        </mxCell>
        <mxCell id="PKU2KmVBedQqIv4Sg6Ox-16" value="&lt;p style=&quot;margin: 0px ; margin-top: 4px ; text-align: center&quot;&gt;&lt;b&gt;paw2&lt;/b&gt;&lt;/p&gt;&lt;hr&gt;&lt;p style=&quot;margin: 0px ; text-align: center&quot;&gt;kind of alias for paw2Core&lt;/p&gt;" style="shape=rect;html=1;overflow=auto;rounded=1;shadow=0;glass=0;comic=0;startSize=50;strokeColor=#6963C5;strokeWidth=2;fillColor=#CCCCFF;fontSize=12;fontColor=#413565;align=center;arcSize=5;labelPosition=center;verticalLabelPosition=middle;verticalAlign=top;labelBackgroundColor=none;whiteSpace=wrap;overflow=fill;gradientColor=none;gradientDirection=north;" vertex="1" parent="1">
          <mxGeometry x="60" y="319" width="200" height="75" as="geometry" />
        </mxCell>
        <mxCell id="PKU2KmVBedQqIv4Sg6Ox-17" value="&lt;p style=&quot;margin: 0px ; margin-top: 4px ; text-align: center&quot;&gt;&lt;b&gt;paw2Katana&lt;/b&gt;&lt;/p&gt;&lt;hr&gt;&lt;p style=&quot;margin: 0px ; text-align: center&quot;&gt;kind of alias for paw2Core&lt;/p&gt;" style="shape=rect;html=1;overflow=auto;rounded=1;shadow=0;glass=0;comic=0;startSize=50;strokeColor=#6963C5;strokeWidth=2;fillColor=#CCCCFF;fontSize=12;fontColor=#413565;align=center;arcSize=5;labelPosition=center;verticalLabelPosition=middle;verticalAlign=top;labelBackgroundColor=none;whiteSpace=wrap;overflow=fill;gradientColor=none;gradientDirection=north;" vertex="1" parent="1">
          <mxGeometry x="1430" y="-594.6470588235294" width="200" height="75" as="geometry" />
        </mxCell>
        <mxCell id="PKU2KmVBedQqIv4Sg6Ox-18" value="&lt;p style=&quot;margin: 0px ; margin-top: 4px ; text-align: center&quot;&gt;&lt;b&gt;paw2KatanaBeta&lt;/b&gt;&lt;/p&gt;&lt;hr&gt;&lt;p style=&quot;margin: 0px ; text-align: center&quot;&gt;kind of alias for paw2Core&lt;/p&gt;" style="shape=rect;html=1;overflow=auto;rounded=1;shadow=0;glass=0;comic=0;startSize=50;strokeColor=#6963C5;strokeWidth=2;fillColor=#CCCCFF;fontSize=12;fontColor=#413565;align=center;arcSize=5;labelPosition=center;verticalLabelPosition=middle;verticalAlign=top;labelBackgroundColor=none;whiteSpace=wrap;overflow=fill;gradientColor=none;gradientDirection=north;" vertex="1" parent="1">
          <mxGeometry x="1430" y="-441.1470588235292" width="200" height="75" as="geometry" />
        </mxCell>
        <mxCell id="PKU2KmVBedQqIv4Sg6Ox-19" value="&lt;p style=&quot;margin: 0px ; margin-top: 4px ; text-align: center&quot;&gt;&lt;b&gt;paw2KatanaDev&lt;/b&gt;&lt;/p&gt;&lt;hr&gt;&lt;p style=&quot;margin: 0px ; text-align: center&quot;&gt;kind of alias for paw2Core&lt;/p&gt;" style="shape=rect;html=1;overflow=auto;rounded=1;shadow=0;glass=0;comic=0;startSize=50;strokeColor=#6963C5;strokeWidth=2;fillColor=#CCCCFF;fontSize=12;fontColor=#413565;align=center;arcSize=5;labelPosition=center;verticalLabelPosition=middle;verticalAlign=top;labelBackgroundColor=none;whiteSpace=wrap;overflow=fill;gradientColor=none;gradientDirection=north;" vertex="1" parent="1">
          <mxGeometry x="1430" y="-263.64705882352916" width="200" height="75" as="geometry" />
        </mxCell>
        <mxCell id="PKU2KmVBedQqIv4Sg6Ox-20" value="&lt;p style=&quot;margin: 0px ; margin-top: 4px ; text-align: center&quot;&gt;&lt;b&gt;katana&lt;/b&gt;&lt;/p&gt;&lt;hr&gt;&lt;p style=&quot;margin: 0px ; text-align: center&quot;&gt;kind of alias for paw2Core&lt;/p&gt;" style="shape=rect;html=1;overflow=auto;rounded=1;shadow=0;glass=0;comic=0;startSize=50;strokeColor=#6963C5;strokeWidth=2;fillColor=#CCCCFF;fontSize=12;fontColor=#413565;align=center;arcSize=5;labelPosition=center;verticalLabelPosition=middle;verticalAlign=top;labelBackgroundColor=none;whiteSpace=wrap;overflow=fill;gradientColor=none;gradientDirection=north;" vertex="1" parent="1">
          <mxGeometry x="560" y="-810" width="200" height="75" as="geometry" />
        </mxCell>
        <mxCell id="PKU2KmVBedQqIv4Sg6Ox-21" style="edgeStyle=orthogonalEdgeStyle;rounded=1;comic=0;jumpStyle=none;html=1;entryX=0;entryY=0.5;shadow=0;startArrow=none;startFill=0;endArrow=classic;endFill=1;jettySize=auto;orthogonalLoop=1;strokeColor=#6963C5;strokeWidth=2;fontFamily=Helvetica;fontSize=12;fontColor=#413565;" edge="1" parent="1" source="PKU2KmVBedQqIv4Sg6Ox-22" target="PKU2KmVBedQqIv4Sg6Ox-20">
          <mxGeometry relative="1" as="geometry" />
        </mxCell>
        <mxCell id="PKU2KmVBedQqIv4Sg6Ox-22" value="&lt;p style=&quot;margin: 0px ; margin-top: 4px ; text-align: center&quot;&gt;&lt;b&gt;katanaLicensing&lt;/b&gt;&lt;/p&gt;&lt;hr&gt;&lt;p style=&quot;margin: 0px ; text-align: center&quot;&gt;kind of alias for paw2Core&lt;/p&gt;" style="shape=rect;html=1;overflow=auto;rounded=1;shadow=0;glass=0;comic=0;startSize=50;strokeColor=#6963C5;strokeWidth=2;fillColor=#CCCCFF;fontSize=12;fontColor=#413565;align=center;arcSize=5;labelPosition=center;verticalLabelPosition=middle;verticalAlign=top;labelBackgroundColor=none;whiteSpace=wrap;overflow=fill;gradientColor=none;gradientDirection=north;" vertex="1" parent="1">
          <mxGeometry x="230" y="-810.1470588235294" width="200" height="75" as="geometry" />
        </mxCell>
        <mxCell id="PKU2KmVBedQqIv4Sg6Ox-23" style="edgeStyle=orthogonalEdgeStyle;rounded=1;comic=0;jumpStyle=none;html=1;entryX=0;entryY=0.5;shadow=0;startArrow=none;startFill=0;endArrow=classic;endFill=1;jettySize=auto;orthogonalLoop=1;strokeColor=#6963C5;strokeWidth=2;fontFamily=Helvetica;fontSize=12;fontColor=#413565;dashed=1;" edge="1" parent="1" source="PKU2KmVBedQqIv4Sg6Ox-26" target="PKU2KmVBedQqIv4Sg6Ox-31">
          <mxGeometry relative="1" as="geometry" />
        </mxCell>
        <mxCell id="PKU2KmVBedQqIv4Sg6Ox-24" style="edgeStyle=orthogonalEdgeStyle;rounded=1;comic=0;jumpStyle=none;html=1;entryX=0;entryY=0.5;shadow=0;startArrow=none;startFill=0;endArrow=classic;endFill=1;jettySize=auto;orthogonalLoop=1;strokeColor=#6963C5;strokeWidth=2;fontFamily=Helvetica;fontSize=12;fontColor=#413565;dashed=1;" edge="1" parent="1" source="PKU2KmVBedQqIv4Sg6Ox-26" target="PKU2KmVBedQqIv4Sg6Ox-33">
          <mxGeometry relative="1" as="geometry" />
        </mxCell>
        <mxCell id="PKU2KmVBedQqIv4Sg6Ox-25" style="edgeStyle=orthogonalEdgeStyle;rounded=1;comic=0;jumpStyle=none;html=1;entryX=0;entryY=0.5;shadow=0;startArrow=none;startFill=0;endArrow=classic;endFill=1;jettySize=auto;orthogonalLoop=1;strokeColor=#6963C5;strokeWidth=2;fontFamily=Helvetica;fontSize=12;fontColor=#413565;dashed=1;" edge="1" parent="1" source="PKU2KmVBedQqIv4Sg6Ox-26" target="PKU2KmVBedQqIv4Sg6Ox-35">
          <mxGeometry relative="1" as="geometry" />
        </mxCell>
        <mxCell id="PKU2KmVBedQqIv4Sg6Ox-26" value="&lt;p style=&quot;margin: 0px ; margin-top: 4px ; text-align: center&quot;&gt;&lt;b&gt;katanaCore&lt;/b&gt;&lt;/p&gt;&lt;hr&gt;&lt;p style=&quot;margin: 0px ; text-align: center&quot;&gt;kind of alias for paw2Core&lt;/p&gt;" style="shape=rect;html=1;overflow=auto;rounded=1;shadow=0;glass=0;comic=0;startSize=50;strokeColor=#6963C5;strokeWidth=2;fillColor=#CCCCFF;fontSize=12;fontColor=#413565;align=center;arcSize=5;labelPosition=center;verticalLabelPosition=middle;verticalAlign=top;labelBackgroundColor=none;whiteSpace=wrap;overflow=fill;gradientColor=none;gradientDirection=north;" vertex="1" parent="1">
          <mxGeometry x="560" y="-441" width="200" height="75" as="geometry" />
        </mxCell>
        <mxCell id="PKU2KmVBedQqIv4Sg6Ox-27" value="&lt;p style=&quot;margin: 0px ; margin-top: 4px ; text-align: center&quot;&gt;&lt;b&gt;katanaTools&lt;/b&gt;&lt;/p&gt;&lt;hr&gt;&lt;p style=&quot;margin: 0px ; text-align: center&quot;&gt;kind of alias for paw2Core&lt;/p&gt;" style="shape=rect;html=1;overflow=auto;rounded=1;shadow=0;glass=0;comic=0;startSize=50;strokeColor=#6963C5;strokeWidth=2;fillColor=#CCCCFF;fontSize=12;fontColor=#413565;align=center;arcSize=5;labelPosition=center;verticalLabelPosition=middle;verticalAlign=top;labelBackgroundColor=none;whiteSpace=wrap;overflow=fill;gradientColor=none;gradientDirection=north;" vertex="1" parent="1">
          <mxGeometry x="560" y="-256.6470588235294" width="200" height="75" as="geometry" />
        </mxCell>
        <mxCell id="PKU2KmVBedQqIv4Sg6Ox-28" value="&lt;p style=&quot;margin: 0px ; margin-top: 4px ; text-align: center&quot;&gt;&lt;b&gt;...&lt;/b&gt;&lt;/p&gt;&lt;hr&gt;&lt;p style=&quot;margin: 0px ; text-align: center&quot;&gt;...&lt;/p&gt;" style="shape=rect;html=1;overflow=auto;rounded=1;shadow=0;glass=0;comic=0;startSize=50;strokeColor=#6963C5;strokeWidth=2;fillColor=#CCCCFF;fontSize=12;fontColor=#413565;align=center;arcSize=5;labelPosition=center;verticalLabelPosition=middle;verticalAlign=top;labelBackgroundColor=none;whiteSpace=wrap;overflow=fill;gradientColor=none;gradientDirection=north;" vertex="1" parent="1">
          <mxGeometry x="560" y="-80.14705882352939" width="200" height="75" as="geometry" />
        </mxCell>
        <mxCell id="PKU2KmVBedQqIv4Sg6Ox-29" value="&lt;p style=&quot;margin: 0px ; margin-top: 4px ; text-align: center&quot;&gt;&lt;b&gt;paw2Core&lt;/b&gt;&lt;/p&gt;&lt;hr&gt;&lt;p style=&quot;margin: 0px ; text-align: center&quot;&gt;Pipeline Core&lt;/p&gt;" style="shape=rect;html=1;overflow=auto;rounded=1;shadow=0;glass=0;comic=0;startSize=50;strokeColor=#6963C5;strokeWidth=2;fillColor=#CCCCFF;fontSize=12;fontColor=#413565;align=center;arcSize=5;labelPosition=center;verticalLabelPosition=middle;verticalAlign=top;labelBackgroundColor=none;whiteSpace=wrap;overflow=fill;gradientColor=none;gradientDirection=north;" vertex="1" parent="1">
          <mxGeometry x="560" y="-994" width="200" height="75" as="geometry" />
        </mxCell>
        <mxCell id="PKU2KmVBedQqIv4Sg6Ox-30" style="edgeStyle=orthogonalEdgeStyle;rounded=1;comic=0;jumpStyle=none;html=1;entryX=0;entryY=0.5;shadow=0;dashed=1;startArrow=none;startFill=0;endArrow=classic;endFill=1;jettySize=auto;orthogonalLoop=1;strokeColor=#6963C5;strokeWidth=2;fontFamily=Helvetica;fontSize=12;fontColor=#413565;" edge="1" parent="1" source="PKU2KmVBedQqIv4Sg6Ox-31" target="PKU2KmVBedQqIv4Sg6Ox-17">
          <mxGeometry relative="1" as="geometry" />
        </mxCell>
        <mxCell id="PKU2KmVBedQqIv4Sg6Ox-31" value="&lt;p style=&quot;margin: 0px ; margin-top: 4px ; text-align: center&quot;&gt;&lt;b&gt;katanaCore-X.X.X&lt;/b&gt;&lt;/p&gt;&lt;hr&gt;&lt;p style=&quot;margin: 0px ; text-align: center&quot;&gt;Fixed to the patch version.&lt;br&gt;It&#39;s bake (updated) once by &lt;b&gt;week&lt;/b&gt;&lt;/p&gt;" style="shape=rect;html=1;overflow=auto;rounded=1;shadow=0;glass=0;comic=0;startSize=50;strokeColor=#6963C5;strokeWidth=2;fillColor=#FFF2CC;fontSize=12;fontColor=#413565;align=center;arcSize=5;labelPosition=center;verticalLabelPosition=middle;verticalAlign=top;labelBackgroundColor=none;whiteSpace=wrap;overflow=fill;gradientColor=none;gradientDirection=north;dashed=1;" vertex="1" parent="1">
          <mxGeometry x="1030" y="-594.6470588235293" width="200" height="75" as="geometry" />
        </mxCell>
        <mxCell id="PKU2KmVBedQqIv4Sg6Ox-32" style="edgeStyle=orthogonalEdgeStyle;rounded=1;comic=0;jumpStyle=none;html=1;entryX=0;entryY=0.5;shadow=0;dashed=1;startArrow=none;startFill=0;endArrow=classic;endFill=1;jettySize=auto;orthogonalLoop=1;strokeColor=#6963C5;strokeWidth=2;fontFamily=Helvetica;fontSize=12;fontColor=#413565;" edge="1" parent="1" source="PKU2KmVBedQqIv4Sg6Ox-33" target="PKU2KmVBedQqIv4Sg6Ox-18">
          <mxGeometry relative="1" as="geometry" />
        </mxCell>
        <mxCell id="PKU2KmVBedQqIv4Sg6Ox-33" value="&lt;p style=&quot;margin: 0px ; margin-top: 4px ; text-align: center&quot;&gt;&lt;b&gt;katanaCore-X.X.X&lt;/b&gt;&lt;/p&gt;&lt;hr&gt;&lt;p style=&quot;margin: 0px ; text-align: center&quot;&gt;Fixed to the patch version.&lt;br&gt;It&#39;s bake once by &lt;b&gt;day&lt;/b&gt;&lt;/p&gt;" style="shape=rect;html=1;overflow=auto;rounded=1;shadow=0;glass=0;comic=0;startSize=50;strokeColor=#6963C5;strokeWidth=2;fillColor=#FFF2CC;fontSize=12;fontColor=#413565;align=center;arcSize=5;labelPosition=center;verticalLabelPosition=middle;verticalAlign=top;labelBackgroundColor=none;whiteSpace=wrap;overflow=fill;gradientColor=none;gradientDirection=north;dashed=1;" vertex="1" parent="1">
          <mxGeometry x="1030" y="-441.1470588235294" width="200" height="75" as="geometry" />
        </mxCell>
        <mxCell id="PKU2KmVBedQqIv4Sg6Ox-34" style="edgeStyle=orthogonalEdgeStyle;rounded=1;comic=0;jumpStyle=none;html=1;entryX=0;entryY=0.5;shadow=0;startArrow=none;startFill=0;endArrow=classic;endFill=1;jettySize=auto;orthogonalLoop=1;strokeColor=#6963C5;strokeWidth=2;fontFamily=Helvetica;fontSize=12;fontColor=#413565;dashed=1;" edge="1" parent="1" source="PKU2KmVBedQqIv4Sg6Ox-35" target="PKU2KmVBedQqIv4Sg6Ox-19">
          <mxGeometry relative="1" as="geometry" />
        </mxCell>
        <mxCell id="PKU2KmVBedQqIv4Sg6Ox-35" value="&lt;p style=&quot;margin: 0px ; margin-top: 4px ; text-align: center&quot;&gt;&lt;b&gt;katanaCore-X|dev&lt;/b&gt;&lt;/p&gt;&lt;hr&gt;&lt;p style=&quot;margin: 0px ; text-align: center&quot;&gt;Fixed to the major version and&amp;nbsp;&lt;br&gt;It&#39;s bake (updated) once by week&lt;/p&gt;" style="shape=rect;html=1;overflow=auto;rounded=1;shadow=0;glass=0;comic=0;startSize=50;strokeColor=#6963C5;strokeWidth=2;fillColor=#FFF2CC;fontSize=12;fontColor=#413565;align=center;arcSize=5;labelPosition=center;verticalLabelPosition=middle;verticalAlign=top;labelBackgroundColor=none;whiteSpace=wrap;overflow=fill;gradientColor=none;gradientDirection=north;dashed=1;" vertex="1" parent="1">
          <mxGeometry x="1030" y="-263.6470588235294" width="200" height="75" as="geometry" />
        </mxCell>
        <mxCell id="PKU2KmVBedQqIv4Sg6Ox-36" style="edgeStyle=orthogonalEdgeStyle;rounded=1;comic=0;jumpStyle=none;html=1;entryX=0.5;entryY=0;shadow=0;startArrow=none;startFill=0;startSize=50;endArrow=classic;endFill=1;jettySize=auto;orthogonalLoop=1;strokeColor=#666666;strokeWidth=2;fontFamily=Helvetica;fontSize=24;fontColor=#413565;" edge="1" parent="1" source="PKU2KmVBedQqIv4Sg6Ox-60" target="PKU2KmVBedQqIv4Sg6Ox-42">
          <mxGeometry relative="1" as="geometry" />
        </mxCell>
        <mxCell id="PKU2KmVBedQqIv4Sg6Ox-37" value="Set full resolution if the shot confo group is in confo render" style="rounded=1;whiteSpace=wrap;html=1;shadow=0;glass=0;comic=0;labelBackgroundColor=none;startSize=50;strokeColor=#666666;strokeWidth=2;fillColor=#f5f5f5;fontFamily=Helvetica;fontSize=12;fontColor=#413565;align=center;verticalAlign=middle;gradientDirection=north;arcSize=2;fontStyle=0" vertex="1" parent="1">
          <mxGeometry x="-410" y="870" width="120" height="60" as="geometry" />
        </mxCell>
        <mxCell id="PKU2KmVBedQqIv4Sg6Ox-38" style="edgeStyle=orthogonalEdgeStyle;rounded=1;comic=0;jumpStyle=none;html=1;entryX=0.5;entryY=0;shadow=0;startArrow=none;startFill=0;startSize=50;endArrow=classic;endFill=1;jettySize=auto;orthogonalLoop=1;strokeColor=#666666;strokeWidth=2;fontFamily=Helvetica;fontSize=24;fontColor=#413565;exitX=0.5;exitY=1;" edge="1" parent="1" source="PKU2KmVBedQqIv4Sg6Ox-42" target="PKU2KmVBedQqIv4Sg6Ox-44">
          <mxGeometry relative="1" as="geometry" />
        </mxCell>
        <mxCell id="PKU2KmVBedQqIv4Sg6Ox-39" value="NO" style="text;html=1;resizable=0;points=[];align=center;verticalAlign=middle;labelBackgroundColor=#ffffff;fontColor=#413565;fontStyle=1" vertex="1" connectable="0" parent="PKU2KmVBedQqIv4Sg6Ox-38">
          <mxGeometry x="-0.86" y="-3" relative="1" as="geometry">
            <mxPoint x="13" y="-4" as="offset" />
          </mxGeometry>
        </mxCell>
        <mxCell id="PKU2KmVBedQqIv4Sg6Ox-40" style="edgeStyle=orthogonalEdgeStyle;rounded=1;comic=0;jumpStyle=none;html=1;entryX=0.5;entryY=0;shadow=0;startArrow=none;startFill=0;startSize=50;endArrow=classic;endFill=1;jettySize=auto;orthogonalLoop=1;strokeColor=#666666;strokeWidth=2;fontFamily=Helvetica;fontSize=24;fontColor=#413565;" edge="1" parent="1" source="PKU2KmVBedQqIv4Sg6Ox-42" target="PKU2KmVBedQqIv4Sg6Ox-46">
          <mxGeometry relative="1" as="geometry" />
        </mxCell>
        <mxCell id="PKU2KmVBedQqIv4Sg6Ox-41" value="YES" style="text;html=1;resizable=0;points=[];align=center;verticalAlign=middle;labelBackgroundColor=#ffffff;fontColor=#413565;fontStyle=1" vertex="1" connectable="0" parent="PKU2KmVBedQqIv4Sg6Ox-40">
          <mxGeometry x="-0.6338" y="-4" relative="1" as="geometry">
            <mxPoint x="-36" y="-14" as="offset" />
          </mxGeometry>
        </mxCell>
        <mxCell id="PKU2KmVBedQqIv4Sg6Ox-42" value="Is confo Render Group ?" style="rhombus;whiteSpace=wrap;html=1;rounded=1;shadow=0;glass=0;comic=0;labelBackgroundColor=none;startSize=50;strokeColor=#b85450;strokeWidth=2;fillColor=#f8cecc;fontFamily=Helvetica;fontSize=12;fontColor=#413565;align=center;verticalAlign=middle;gradientDirection=north;arcSize=5;aspect=fixed;fontStyle=0" vertex="1" parent="1">
          <mxGeometry x="-410" y="1170" width="120" height="120" as="geometry" />
        </mxCell>
        <mxCell id="PKU2KmVBedQqIv4Sg6Ox-43" style="edgeStyle=orthogonalEdgeStyle;rounded=1;comic=0;jumpStyle=none;html=1;entryX=0.5;entryY=0;shadow=0;startArrow=none;startFill=0;startSize=50;endArrow=classic;endFill=1;jettySize=auto;orthogonalLoop=1;strokeColor=#666666;strokeWidth=2;fontFamily=Helvetica;fontSize=24;fontColor=#413565;exitX=0.5;exitY=1;" edge="1" parent="1" source="PKU2KmVBedQqIv4Sg6Ox-44" target="PKU2KmVBedQqIv4Sg6Ox-63">
          <mxGeometry relative="1" as="geometry" />
        </mxCell>
        <mxCell id="PKU2KmVBedQqIv4Sg6Ox-44" value="Check Complete" style="rounded=1;whiteSpace=wrap;html=1;shadow=0;glass=0;comic=0;labelBackgroundColor=none;startSize=50;strokeColor=#82b366;strokeWidth=2;fillColor=#d5e8d4;fontFamily=Helvetica;fontSize=12;fontColor=#413565;align=center;verticalAlign=middle;gradientDirection=north;arcSize=5;fontStyle=0" vertex="1" parent="1">
          <mxGeometry x="-410" y="1490" width="120" height="60" as="geometry" />
        </mxCell>
        <mxCell id="PKU2KmVBedQqIv4Sg6Ox-45" style="edgeStyle=orthogonalEdgeStyle;rounded=1;comic=0;jumpStyle=none;html=1;entryX=0.75;entryY=0;shadow=0;startArrow=none;startFill=0;startSize=50;endArrow=classic;endFill=1;jettySize=auto;orthogonalLoop=1;strokeColor=#666666;strokeWidth=2;fontFamily=Helvetica;fontSize=24;fontColor=#413565;exitX=0.5;exitY=1;" edge="1" parent="1" source="PKU2KmVBedQqIv4Sg6Ox-46" target="PKU2KmVBedQqIv4Sg6Ox-44">
          <mxGeometry relative="1" as="geometry" />
        </mxCell>
        <mxCell id="PKU2KmVBedQqIv4Sg6Ox-46" value="Set resolution&lt;br&gt;to full&lt;br&gt;" style="rounded=1;whiteSpace=wrap;html=1;shadow=0;glass=0;comic=0;labelBackgroundColor=none;startSize=50;strokeColor=#6c8ebf;strokeWidth=2;fillColor=#dae8fc;fontFamily=Helvetica;fontSize=12;fontColor=#413565;align=center;verticalAlign=middle;gradientDirection=north;arcSize=15;fontStyle=0" vertex="1" parent="1">
          <mxGeometry x="-170" y="1310" width="120" height="60" as="geometry" />
        </mxCell>
        <mxCell id="PKU2KmVBedQqIv4Sg6Ox-47" style="edgeStyle=orthogonalEdgeStyle;rounded=1;comic=0;jumpStyle=none;html=1;entryX=0.5;entryY=0;shadow=0;startArrow=none;startFill=0;startSize=50;endArrow=classic;endFill=1;jettySize=auto;orthogonalLoop=1;strokeColor=#666666;strokeWidth=2;fontFamily=Helvetica;fontSize=24;fontColor=#413565;" edge="1" parent="1" source="PKU2KmVBedQqIv4Sg6Ox-58" target="PKU2KmVBedQqIv4Sg6Ox-53">
          <mxGeometry relative="1" as="geometry" />
        </mxCell>
        <mxCell id="PKU2KmVBedQqIv4Sg6Ox-48" value="Update Confo Group" style="rounded=1;whiteSpace=wrap;html=1;shadow=0;glass=0;comic=0;labelBackgroundColor=none;startSize=50;strokeColor=#666666;strokeWidth=2;fillColor=#f5f5f5;fontFamily=Helvetica;fontSize=12;fontColor=#413565;align=center;verticalAlign=middle;gradientDirection=north;arcSize=2;fontStyle=0" vertex="1" parent="1">
          <mxGeometry x="230" y="870" width="120" height="60" as="geometry" />
        </mxCell>
        <mxCell id="PKU2KmVBedQqIv4Sg6Ox-49" style="edgeStyle=orthogonalEdgeStyle;rounded=1;comic=0;jumpStyle=none;html=1;entryX=0.5;entryY=0;shadow=0;startArrow=none;startFill=0;startSize=50;endArrow=classic;endFill=1;jettySize=auto;orthogonalLoop=1;strokeColor=#666666;strokeWidth=2;fontFamily=Helvetica;fontSize=24;fontColor=#413565;exitX=0.5;exitY=1;" edge="1" parent="1" source="PKU2KmVBedQqIv4Sg6Ox-53" target="PKU2KmVBedQqIv4Sg6Ox-55">
          <mxGeometry relative="1" as="geometry" />
        </mxCell>
        <mxCell id="PKU2KmVBedQqIv4Sg6Ox-50" value="NO" style="text;html=1;resizable=0;points=[];align=center;verticalAlign=middle;labelBackgroundColor=#ffffff;fontColor=#413565;fontStyle=1" vertex="1" connectable="0" parent="PKU2KmVBedQqIv4Sg6Ox-49">
          <mxGeometry x="-0.86" y="-3" relative="1" as="geometry">
            <mxPoint x="13" y="-4" as="offset" />
          </mxGeometry>
        </mxCell>
        <mxCell id="PKU2KmVBedQqIv4Sg6Ox-51" style="edgeStyle=orthogonalEdgeStyle;rounded=1;comic=0;jumpStyle=none;html=1;entryX=0.5;entryY=0;shadow=0;startArrow=none;startFill=0;startSize=50;endArrow=classic;endFill=1;jettySize=auto;orthogonalLoop=1;strokeColor=#666666;strokeWidth=2;fontFamily=Helvetica;fontSize=24;fontColor=#413565;" edge="1" parent="1" source="PKU2KmVBedQqIv4Sg6Ox-53" target="PKU2KmVBedQqIv4Sg6Ox-57">
          <mxGeometry relative="1" as="geometry" />
        </mxCell>
        <mxCell id="PKU2KmVBedQqIv4Sg6Ox-52" value="YES" style="text;html=1;resizable=0;points=[];align=center;verticalAlign=middle;labelBackgroundColor=#ffffff;fontColor=#413565;fontStyle=1" vertex="1" connectable="0" parent="PKU2KmVBedQqIv4Sg6Ox-51">
          <mxGeometry x="-0.6338" y="-4" relative="1" as="geometry">
            <mxPoint x="-36" y="-14" as="offset" />
          </mxGeometry>
        </mxCell>
        <mxCell id="PKU2KmVBedQqIv4Sg6Ox-53" value="Is new confo group is available?" style="rhombus;whiteSpace=wrap;html=1;rounded=1;shadow=0;glass=0;comic=0;labelBackgroundColor=none;startSize=50;strokeColor=#b85450;strokeWidth=2;fillColor=#f8cecc;fontFamily=Helvetica;fontSize=12;fontColor=#413565;align=center;verticalAlign=middle;gradientDirection=north;arcSize=5;aspect=fixed;fontStyle=0" vertex="1" parent="1">
          <mxGeometry x="230" y="1170" width="120" height="120" as="geometry" />
        </mxCell>
        <mxCell id="PKU2KmVBedQqIv4Sg6Ox-54" style="edgeStyle=orthogonalEdgeStyle;rounded=1;comic=0;jumpStyle=none;html=1;entryX=0.5;entryY=0;shadow=0;startArrow=none;startFill=0;startSize=50;endArrow=classic;endFill=1;jettySize=auto;orthogonalLoop=1;strokeColor=#666666;strokeWidth=2;fontFamily=Helvetica;fontSize=24;fontColor=#413565;exitX=0.5;exitY=1;" edge="1" parent="1" source="PKU2KmVBedQqIv4Sg6Ox-55" target="PKU2KmVBedQqIv4Sg6Ox-63">
          <mxGeometry relative="1" as="geometry" />
        </mxCell>
        <mxCell id="PKU2KmVBedQqIv4Sg6Ox-55" value="Check Complete" style="rounded=1;whiteSpace=wrap;html=1;shadow=0;glass=0;comic=0;labelBackgroundColor=none;startSize=50;strokeColor=#82b366;strokeWidth=2;fillColor=#d5e8d4;fontFamily=Helvetica;fontSize=12;fontColor=#413565;align=center;verticalAlign=middle;gradientDirection=north;arcSize=5;fontStyle=0" vertex="1" parent="1">
          <mxGeometry x="230" y="1490" width="120" height="60" as="geometry" />
        </mxCell>
        <mxCell id="PKU2KmVBedQqIv4Sg6Ox-56" style="edgeStyle=orthogonalEdgeStyle;rounded=1;comic=0;jumpStyle=none;html=1;entryX=0.75;entryY=0;shadow=0;startArrow=none;startFill=0;startSize=50;endArrow=classic;endFill=1;jettySize=auto;orthogonalLoop=1;strokeColor=#666666;strokeWidth=2;fontFamily=Helvetica;fontSize=24;fontColor=#413565;exitX=0.5;exitY=1;" edge="1" parent="1" source="PKU2KmVBedQqIv4Sg6Ox-57" target="PKU2KmVBedQqIv4Sg6Ox-55">
          <mxGeometry relative="1" as="geometry" />
        </mxCell>
        <mxCell id="PKU2KmVBedQqIv4Sg6Ox-57" value="update it&lt;br&gt;" style="rounded=1;whiteSpace=wrap;html=1;shadow=0;glass=0;comic=0;labelBackgroundColor=none;startSize=50;strokeColor=#6c8ebf;strokeWidth=2;fillColor=#dae8fc;fontFamily=Helvetica;fontSize=12;fontColor=#413565;align=center;verticalAlign=middle;gradientDirection=north;arcSize=15;fontStyle=0" vertex="1" parent="1">
          <mxGeometry x="470" y="1310" width="120" height="60" as="geometry" />
        </mxCell>
        <mxCell id="PKU2KmVBedQqIv4Sg6Ox-58" value="Check if new confo group &quot;type&quot; and versions are available&lt;br&gt;" style="rounded=1;whiteSpace=wrap;html=1;shadow=0;glass=0;comic=0;labelBackgroundColor=none;startSize=50;strokeColor=#6c8ebf;strokeWidth=2;fillColor=#dae8fc;fontFamily=Helvetica;fontSize=12;fontColor=#413565;align=center;verticalAlign=middle;gradientDirection=north;arcSize=15;fontStyle=0" vertex="1" parent="1">
          <mxGeometry x="230" y="1010" width="120" height="60" as="geometry" />
        </mxCell>
        <mxCell id="PKU2KmVBedQqIv4Sg6Ox-59" style="edgeStyle=orthogonalEdgeStyle;rounded=1;comic=0;jumpStyle=none;html=1;entryX=0.5;entryY=0;shadow=0;startArrow=none;startFill=0;startSize=50;endArrow=classic;endFill=1;jettySize=auto;orthogonalLoop=1;strokeColor=#666666;strokeWidth=2;fontFamily=Helvetica;fontSize=24;fontColor=#413565;" edge="1" parent="1" source="PKU2KmVBedQqIv4Sg6Ox-48" target="PKU2KmVBedQqIv4Sg6Ox-58">
          <mxGeometry relative="1" as="geometry">
            <mxPoint x="290" y="990" as="sourcePoint" />
            <mxPoint x="290" y="1170" as="targetPoint" />
          </mxGeometry>
        </mxCell>
        <mxCell id="PKU2KmVBedQqIv4Sg6Ox-60" value="Check the Confo Group Task&lt;br&gt;" style="rounded=1;whiteSpace=wrap;html=1;shadow=0;glass=0;comic=0;labelBackgroundColor=none;startSize=50;strokeColor=#6c8ebf;strokeWidth=2;fillColor=#dae8fc;fontFamily=Helvetica;fontSize=12;fontColor=#413565;align=center;verticalAlign=middle;gradientDirection=north;arcSize=15;fontStyle=0" vertex="1" parent="1">
          <mxGeometry x="-410" y="1010" width="120" height="60" as="geometry" />
        </mxCell>
        <mxCell id="PKU2KmVBedQqIv4Sg6Ox-61" style="edgeStyle=orthogonalEdgeStyle;rounded=1;comic=0;jumpStyle=none;html=1;entryX=0.5;entryY=0;shadow=0;startArrow=none;startFill=0;startSize=50;endArrow=classic;endFill=1;jettySize=auto;orthogonalLoop=1;strokeColor=#666666;strokeWidth=2;fontFamily=Helvetica;fontSize=24;fontColor=#413565;" edge="1" parent="1" source="PKU2KmVBedQqIv4Sg6Ox-37" target="PKU2KmVBedQqIv4Sg6Ox-60">
          <mxGeometry relative="1" as="geometry">
            <mxPoint x="-350" y="930" as="sourcePoint" />
            <mxPoint x="-350" y="1170" as="targetPoint" />
          </mxGeometry>
        </mxCell>
        <mxCell id="PKU2KmVBedQqIv4Sg6Ox-62" style="edgeStyle=orthogonalEdgeStyle;rounded=1;comic=0;jumpStyle=none;html=1;exitX=0;exitY=0.75;entryX=0;entryY=0.75;shadow=0;startArrow=none;startFill=0;startSize=50;endArrow=classic;endFill=1;jettySize=auto;orthogonalLoop=1;strokeColor=#666666;strokeWidth=2;fontFamily=Helvetica;fontSize=24;fontColor=#413565;" edge="1" parent="1" source="PKU2KmVBedQqIv4Sg6Ox-48" target="PKU2KmVBedQqIv4Sg6Ox-48">
          <mxGeometry relative="1" as="geometry" />
        </mxCell>
        <mxCell id="PKU2KmVBedQqIv4Sg6Ox-63" value="&lt;span&gt;NEXT PROCESS&lt;/span&gt;" style="ellipse;whiteSpace=wrap;html=1;rounded=1;shadow=0;glass=0;comic=0;startSize=50;strokeColor=#666666;strokeWidth=2;fillColor=#f5f5f5;fontSize=12;fontColor=#413565;align=center;fontStyle=1;gradientDirection=north;labelBackgroundColor=none;arcSize=5;" vertex="1" parent="1">
          <mxGeometry x="-110" y="1770" width="160" height="80" as="geometry" />
        </mxCell>
        <mxCell id="PKU2KmVBedQqIv4Sg6Ox-64" value="Sanity Check B" style="rounded=0;whiteSpace=wrap;html=1;shadow=0;glass=0;comic=0;startSize=50;strokeColor=none;strokeWidth=1;fillColor=#f5f5f5;fontColor=#413565;opacity=75;align=left;verticalAlign=top;fontSize=24;textOpacity=50;perimeterSpacing=0;spacingTop=0;spacing=10;" vertex="1" parent="1">
          <mxGeometry x="-2110" y="810" width="520" height="770" as="geometry" />
        </mxCell>
        <mxCell id="PKU2KmVBedQqIv4Sg6Ox-65" value="Sanity Check A" style="rounded=0;whiteSpace=wrap;html=1;shadow=0;glass=0;comic=0;startSize=50;strokeColor=none;strokeWidth=1;fillColor=#f5f5f5;fontColor=#413565;opacity=75;align=left;verticalAlign=top;fontSize=24;textOpacity=50;perimeterSpacing=0;spacingTop=0;spacing=10;" vertex="1" parent="1">
          <mxGeometry x="-2730" y="810" width="520" height="770" as="geometry" />
        </mxCell>
        <mxCell id="PKU2KmVBedQqIv4Sg6Ox-66" style="edgeStyle=orthogonalEdgeStyle;rounded=1;comic=0;jumpStyle=none;html=1;entryX=0.5;entryY=0;shadow=0;startArrow=none;startFill=0;startSize=50;endArrow=classic;endFill=1;jettySize=auto;orthogonalLoop=1;strokeColor=#666666;strokeWidth=2;fontFamily=Helvetica;fontSize=24;fontColor=#413565;" edge="1" parent="1" source="PKU2KmVBedQqIv4Sg6Ox-90" target="PKU2KmVBedQqIv4Sg6Ox-72">
          <mxGeometry relative="1" as="geometry" />
        </mxCell>
        <mxCell id="PKU2KmVBedQqIv4Sg6Ox-67" value="Check A" style="rounded=1;whiteSpace=wrap;html=1;shadow=0;glass=0;comic=0;labelBackgroundColor=none;startSize=50;strokeColor=#666666;strokeWidth=2;fillColor=#f5f5f5;fontFamily=Helvetica;fontSize=12;fontColor=#413565;align=center;verticalAlign=middle;gradientDirection=north;arcSize=2;fontStyle=0" vertex="1" parent="1">
          <mxGeometry x="-2610" y="870" width="120" height="60" as="geometry" />
        </mxCell>
        <mxCell id="PKU2KmVBedQqIv4Sg6Ox-68" style="edgeStyle=orthogonalEdgeStyle;rounded=1;comic=0;jumpStyle=none;html=1;entryX=0.5;entryY=0;shadow=0;startArrow=none;startFill=0;startSize=50;endArrow=classic;endFill=1;jettySize=auto;orthogonalLoop=1;strokeColor=#666666;strokeWidth=2;fontFamily=Helvetica;fontSize=24;fontColor=#413565;exitX=0.5;exitY=1;" edge="1" parent="1" source="PKU2KmVBedQqIv4Sg6Ox-72" target="PKU2KmVBedQqIv4Sg6Ox-74">
          <mxGeometry relative="1" as="geometry" />
        </mxCell>
        <mxCell id="PKU2KmVBedQqIv4Sg6Ox-69" value="NO" style="text;html=1;resizable=0;points=[];align=center;verticalAlign=middle;labelBackgroundColor=#ffffff;fontColor=#413565;fontStyle=1" vertex="1" connectable="0" parent="PKU2KmVBedQqIv4Sg6Ox-68">
          <mxGeometry x="-0.86" y="-3" relative="1" as="geometry">
            <mxPoint x="13" y="-4" as="offset" />
          </mxGeometry>
        </mxCell>
        <mxCell id="PKU2KmVBedQqIv4Sg6Ox-70" style="edgeStyle=orthogonalEdgeStyle;rounded=1;comic=0;jumpStyle=none;html=1;entryX=0.5;entryY=0;shadow=0;startArrow=none;startFill=0;startSize=50;endArrow=classic;endFill=1;jettySize=auto;orthogonalLoop=1;strokeColor=#666666;strokeWidth=2;fontFamily=Helvetica;fontSize=24;fontColor=#413565;" edge="1" parent="1" source="PKU2KmVBedQqIv4Sg6Ox-72" target="PKU2KmVBedQqIv4Sg6Ox-76">
          <mxGeometry relative="1" as="geometry" />
        </mxCell>
        <mxCell id="PKU2KmVBedQqIv4Sg6Ox-71" value="YES" style="text;html=1;resizable=0;points=[];align=center;verticalAlign=middle;labelBackgroundColor=#ffffff;fontColor=#413565;fontStyle=1" vertex="1" connectable="0" parent="PKU2KmVBedQqIv4Sg6Ox-70">
          <mxGeometry x="-0.6338" y="-4" relative="1" as="geometry">
            <mxPoint x="-36" y="-14" as="offset" />
          </mxGeometry>
        </mxCell>
        <mxCell id="PKU2KmVBedQqIv4Sg6Ox-72" value="Something need to be fixed?" style="rhombus;whiteSpace=wrap;html=1;rounded=1;shadow=0;glass=0;comic=0;labelBackgroundColor=none;startSize=50;strokeColor=#b85450;strokeWidth=2;fillColor=#f8cecc;fontFamily=Helvetica;fontSize=12;fontColor=#413565;align=center;verticalAlign=middle;gradientDirection=north;arcSize=5;aspect=fixed;fontStyle=0" vertex="1" parent="1">
          <mxGeometry x="-2610" y="1170" width="120" height="120" as="geometry" />
        </mxCell>
        <mxCell id="PKU2KmVBedQqIv4Sg6Ox-73" style="edgeStyle=orthogonalEdgeStyle;rounded=1;comic=0;jumpStyle=none;html=1;entryX=0.5;entryY=0;shadow=0;startArrow=none;startFill=0;startSize=50;endArrow=classic;endFill=1;jettySize=auto;orthogonalLoop=1;strokeColor=#666666;strokeWidth=2;fontFamily=Helvetica;fontSize=24;fontColor=#413565;exitX=0.5;exitY=1;" edge="1" parent="1" source="PKU2KmVBedQqIv4Sg6Ox-74" target="PKU2KmVBedQqIv4Sg6Ox-93">
          <mxGeometry relative="1" as="geometry" />
        </mxCell>
        <mxCell id="PKU2KmVBedQqIv4Sg6Ox-74" value="Check Complete" style="rounded=1;whiteSpace=wrap;html=1;shadow=0;glass=0;comic=0;labelBackgroundColor=none;startSize=50;strokeColor=#82b366;strokeWidth=2;fillColor=#d5e8d4;fontFamily=Helvetica;fontSize=12;fontColor=#413565;align=center;verticalAlign=middle;gradientDirection=north;arcSize=5;fontStyle=0" vertex="1" parent="1">
          <mxGeometry x="-2610" y="1490" width="120" height="60" as="geometry" />
        </mxCell>
        <mxCell id="PKU2KmVBedQqIv4Sg6Ox-75" style="edgeStyle=orthogonalEdgeStyle;rounded=1;comic=0;jumpStyle=none;html=1;entryX=0.75;entryY=0;shadow=0;startArrow=none;startFill=0;startSize=50;endArrow=classic;endFill=1;jettySize=auto;orthogonalLoop=1;strokeColor=#666666;strokeWidth=2;fontFamily=Helvetica;fontSize=24;fontColor=#413565;exitX=0.5;exitY=1;" edge="1" parent="1" source="PKU2KmVBedQqIv4Sg6Ox-76" target="PKU2KmVBedQqIv4Sg6Ox-74">
          <mxGeometry relative="1" as="geometry" />
        </mxCell>
        <mxCell id="PKU2KmVBedQqIv4Sg6Ox-76" value="Fix process" style="rounded=1;whiteSpace=wrap;html=1;shadow=0;glass=0;comic=0;labelBackgroundColor=none;startSize=50;strokeColor=#6c8ebf;strokeWidth=2;fillColor=#dae8fc;fontFamily=Helvetica;fontSize=12;fontColor=#413565;align=center;verticalAlign=middle;gradientDirection=north;arcSize=15;fontStyle=0" vertex="1" parent="1">
          <mxGeometry x="-2370" y="1310" width="120" height="60" as="geometry" />
        </mxCell>
        <mxCell id="PKU2KmVBedQqIv4Sg6Ox-77" style="edgeStyle=orthogonalEdgeStyle;rounded=1;comic=0;jumpStyle=none;html=1;entryX=0.5;entryY=0;shadow=0;startArrow=none;startFill=0;startSize=50;endArrow=classic;endFill=1;jettySize=auto;orthogonalLoop=1;strokeColor=#666666;strokeWidth=2;fontFamily=Helvetica;fontSize=24;fontColor=#413565;" edge="1" parent="1" source="PKU2KmVBedQqIv4Sg6Ox-88" target="PKU2KmVBedQqIv4Sg6Ox-83">
          <mxGeometry relative="1" as="geometry" />
        </mxCell>
        <mxCell id="PKU2KmVBedQqIv4Sg6Ox-78" value="Check B" style="rounded=1;whiteSpace=wrap;html=1;shadow=0;glass=0;comic=0;labelBackgroundColor=none;startSize=50;strokeColor=#666666;strokeWidth=2;fillColor=#f5f5f5;fontFamily=Helvetica;fontSize=12;fontColor=#413565;align=center;verticalAlign=middle;gradientDirection=north;arcSize=2;fontStyle=0" vertex="1" parent="1">
          <mxGeometry x="-1970" y="870" width="120" height="60" as="geometry" />
        </mxCell>
        <mxCell id="PKU2KmVBedQqIv4Sg6Ox-79" style="edgeStyle=orthogonalEdgeStyle;rounded=1;comic=0;jumpStyle=none;html=1;entryX=0.5;entryY=0;shadow=0;startArrow=none;startFill=0;startSize=50;endArrow=classic;endFill=1;jettySize=auto;orthogonalLoop=1;strokeColor=#666666;strokeWidth=2;fontFamily=Helvetica;fontSize=24;fontColor=#413565;exitX=0.5;exitY=1;" edge="1" parent="1" source="PKU2KmVBedQqIv4Sg6Ox-83" target="PKU2KmVBedQqIv4Sg6Ox-85">
          <mxGeometry relative="1" as="geometry" />
        </mxCell>
        <mxCell id="PKU2KmVBedQqIv4Sg6Ox-80" value="NO" style="text;html=1;resizable=0;points=[];align=center;verticalAlign=middle;labelBackgroundColor=#ffffff;fontColor=#413565;fontStyle=1" vertex="1" connectable="0" parent="PKU2KmVBedQqIv4Sg6Ox-79">
          <mxGeometry x="-0.86" y="-3" relative="1" as="geometry">
            <mxPoint x="13" y="-4" as="offset" />
          </mxGeometry>
        </mxCell>
        <mxCell id="PKU2KmVBedQqIv4Sg6Ox-81" style="edgeStyle=orthogonalEdgeStyle;rounded=1;comic=0;jumpStyle=none;html=1;entryX=0.5;entryY=0;shadow=0;startArrow=none;startFill=0;startSize=50;endArrow=classic;endFill=1;jettySize=auto;orthogonalLoop=1;strokeColor=#666666;strokeWidth=2;fontFamily=Helvetica;fontSize=24;fontColor=#413565;" edge="1" parent="1" source="PKU2KmVBedQqIv4Sg6Ox-83" target="PKU2KmVBedQqIv4Sg6Ox-87">
          <mxGeometry relative="1" as="geometry" />
        </mxCell>
        <mxCell id="PKU2KmVBedQqIv4Sg6Ox-82" value="YES" style="text;html=1;resizable=0;points=[];align=center;verticalAlign=middle;labelBackgroundColor=#ffffff;fontColor=#413565;fontStyle=1" vertex="1" connectable="0" parent="PKU2KmVBedQqIv4Sg6Ox-81">
          <mxGeometry x="-0.6338" y="-4" relative="1" as="geometry">
            <mxPoint x="-36" y="-14" as="offset" />
          </mxGeometry>
        </mxCell>
        <mxCell id="PKU2KmVBedQqIv4Sg6Ox-83" value="Something need to be fixed?" style="rhombus;whiteSpace=wrap;html=1;rounded=1;shadow=0;glass=0;comic=0;labelBackgroundColor=none;startSize=50;strokeColor=#b85450;strokeWidth=2;fillColor=#f8cecc;fontFamily=Helvetica;fontSize=12;fontColor=#413565;align=center;verticalAlign=middle;gradientDirection=north;arcSize=5;aspect=fixed;fontStyle=0" vertex="1" parent="1">
          <mxGeometry x="-1970" y="1170" width="120" height="120" as="geometry" />
        </mxCell>
        <mxCell id="PKU2KmVBedQqIv4Sg6Ox-84" style="edgeStyle=orthogonalEdgeStyle;rounded=1;comic=0;jumpStyle=none;html=1;entryX=0.5;entryY=0;shadow=0;startArrow=none;startFill=0;startSize=50;endArrow=classic;endFill=1;jettySize=auto;orthogonalLoop=1;strokeColor=#666666;strokeWidth=2;fontFamily=Helvetica;fontSize=24;fontColor=#413565;exitX=0.5;exitY=1;" edge="1" parent="1" source="PKU2KmVBedQqIv4Sg6Ox-85" target="PKU2KmVBedQqIv4Sg6Ox-93">
          <mxGeometry relative="1" as="geometry" />
        </mxCell>
        <mxCell id="PKU2KmVBedQqIv4Sg6Ox-85" value="Check Complete" style="rounded=1;whiteSpace=wrap;html=1;shadow=0;glass=0;comic=0;labelBackgroundColor=none;startSize=50;strokeColor=#82b366;strokeWidth=2;fillColor=#d5e8d4;fontFamily=Helvetica;fontSize=12;fontColor=#413565;align=center;verticalAlign=middle;gradientDirection=north;arcSize=5;fontStyle=0" vertex="1" parent="1">
          <mxGeometry x="-1970" y="1490" width="120" height="60" as="geometry" />
        </mxCell>
        <mxCell id="PKU2KmVBedQqIv4Sg6Ox-86" style="edgeStyle=orthogonalEdgeStyle;rounded=1;comic=0;jumpStyle=none;html=1;entryX=0.75;entryY=0;shadow=0;startArrow=none;startFill=0;startSize=50;endArrow=classic;endFill=1;jettySize=auto;orthogonalLoop=1;strokeColor=#666666;strokeWidth=2;fontFamily=Helvetica;fontSize=24;fontColor=#413565;exitX=0.5;exitY=1;" edge="1" parent="1" source="PKU2KmVBedQqIv4Sg6Ox-87" target="PKU2KmVBedQqIv4Sg6Ox-85">
          <mxGeometry relative="1" as="geometry" />
        </mxCell>
        <mxCell id="PKU2KmVBedQqIv4Sg6Ox-87" value="Fix process&lt;br&gt;" style="rounded=1;whiteSpace=wrap;html=1;shadow=0;glass=0;comic=0;labelBackgroundColor=none;startSize=50;strokeColor=#6c8ebf;strokeWidth=2;fillColor=#dae8fc;fontFamily=Helvetica;fontSize=12;fontColor=#413565;align=center;verticalAlign=middle;gradientDirection=north;arcSize=15;fontStyle=0" vertex="1" parent="1">
          <mxGeometry x="-1730" y="1310" width="120" height="60" as="geometry" />
        </mxCell>
        <mxCell id="PKU2KmVBedQqIv4Sg6Ox-88" value="Check process&lt;br&gt;" style="rounded=1;whiteSpace=wrap;html=1;shadow=0;glass=0;comic=0;labelBackgroundColor=none;startSize=50;strokeColor=#6c8ebf;strokeWidth=2;fillColor=#dae8fc;fontFamily=Helvetica;fontSize=12;fontColor=#413565;align=center;verticalAlign=middle;gradientDirection=north;arcSize=15;fontStyle=0" vertex="1" parent="1">
          <mxGeometry x="-1970" y="1010" width="120" height="60" as="geometry" />
        </mxCell>
        <mxCell id="PKU2KmVBedQqIv4Sg6Ox-89" style="edgeStyle=orthogonalEdgeStyle;rounded=1;comic=0;jumpStyle=none;html=1;entryX=0.5;entryY=0;shadow=0;startArrow=none;startFill=0;startSize=50;endArrow=classic;endFill=1;jettySize=auto;orthogonalLoop=1;strokeColor=#666666;strokeWidth=2;fontFamily=Helvetica;fontSize=24;fontColor=#413565;" edge="1" parent="1" source="PKU2KmVBedQqIv4Sg6Ox-78" target="PKU2KmVBedQqIv4Sg6Ox-88">
          <mxGeometry relative="1" as="geometry">
            <mxPoint x="-1910" y="990" as="sourcePoint" />
            <mxPoint x="-1910" y="1170" as="targetPoint" />
          </mxGeometry>
        </mxCell>
        <mxCell id="PKU2KmVBedQqIv4Sg6Ox-90" value="Check process&lt;br&gt;" style="rounded=1;whiteSpace=wrap;html=1;shadow=0;glass=0;comic=0;labelBackgroundColor=none;startSize=50;strokeColor=#6c8ebf;strokeWidth=2;fillColor=#dae8fc;fontFamily=Helvetica;fontSize=12;fontColor=#413565;align=center;verticalAlign=middle;gradientDirection=north;arcSize=15;fontStyle=0" vertex="1" parent="1">
          <mxGeometry x="-2610" y="1010" width="120" height="60" as="geometry" />
        </mxCell>
        <mxCell id="PKU2KmVBedQqIv4Sg6Ox-91" style="edgeStyle=orthogonalEdgeStyle;rounded=1;comic=0;jumpStyle=none;html=1;entryX=0.5;entryY=0;shadow=0;startArrow=none;startFill=0;startSize=50;endArrow=classic;endFill=1;jettySize=auto;orthogonalLoop=1;strokeColor=#666666;strokeWidth=2;fontFamily=Helvetica;fontSize=24;fontColor=#413565;" edge="1" parent="1" source="PKU2KmVBedQqIv4Sg6Ox-67" target="PKU2KmVBedQqIv4Sg6Ox-90">
          <mxGeometry relative="1" as="geometry">
            <mxPoint x="-2550" y="930" as="sourcePoint" />
            <mxPoint x="-2550" y="1170" as="targetPoint" />
          </mxGeometry>
        </mxCell>
        <mxCell id="PKU2KmVBedQqIv4Sg6Ox-92" style="edgeStyle=orthogonalEdgeStyle;rounded=1;comic=0;jumpStyle=none;html=1;exitX=0;exitY=0.75;entryX=0;entryY=0.75;shadow=0;startArrow=none;startFill=0;startSize=50;endArrow=classic;endFill=1;jettySize=auto;orthogonalLoop=1;strokeColor=#666666;strokeWidth=2;fontFamily=Helvetica;fontSize=24;fontColor=#413565;" edge="1" parent="1" source="PKU2KmVBedQqIv4Sg6Ox-78" target="PKU2KmVBedQqIv4Sg6Ox-78">
          <mxGeometry relative="1" as="geometry" />
        </mxCell>
        <mxCell id="PKU2KmVBedQqIv4Sg6Ox-93" value="&lt;span&gt;NEXT PROCESS&lt;/span&gt;" style="ellipse;whiteSpace=wrap;html=1;rounded=1;shadow=0;glass=0;comic=0;startSize=50;strokeColor=#666666;strokeWidth=2;fillColor=#f5f5f5;fontSize=12;fontColor=#413565;align=center;fontStyle=1;gradientDirection=north;labelBackgroundColor=none;arcSize=5;" vertex="1" parent="1">
          <mxGeometry x="-2310" y="1770" width="160" height="80" as="geometry" />
        </mxCell>
        <mxCell id="PKU2KmVBedQqIv4Sg6Ox-94" value="Sanity Check B" style="rounded=0;whiteSpace=wrap;html=1;shadow=0;glass=0;comic=0;startSize=50;strokeColor=none;strokeWidth=1;fillColor=#f5f5f5;fontColor=#413565;opacity=75;align=left;verticalAlign=top;fontSize=24;textOpacity=50;perimeterSpacing=0;spacingTop=0;spacing=10;" vertex="1" parent="1">
          <mxGeometry x="1701.4285714285713" y="810" width="520" height="770" as="geometry" />
        </mxCell>
        <mxCell id="PKU2KmVBedQqIv4Sg6Ox-95" value="Sanity Check A" style="rounded=0;whiteSpace=wrap;html=1;shadow=0;glass=0;comic=0;startSize=50;strokeColor=none;strokeWidth=1;fillColor=#f5f5f5;fontColor=#413565;opacity=75;align=left;verticalAlign=top;fontSize=24;textOpacity=50;perimeterSpacing=0;spacingTop=0;spacing=10;" vertex="1" parent="1">
          <mxGeometry x="1081.4285714285713" y="810" width="520" height="770" as="geometry" />
        </mxCell>
        <mxCell id="PKU2KmVBedQqIv4Sg6Ox-96" style="edgeStyle=orthogonalEdgeStyle;rounded=1;comic=0;jumpStyle=none;html=1;entryX=0.5;entryY=0;shadow=0;startArrow=none;startFill=0;startSize=50;endArrow=classic;endFill=1;jettySize=auto;orthogonalLoop=1;strokeColor=#666666;strokeWidth=2;fontFamily=Helvetica;fontSize=24;fontColor=#413565;" edge="1" parent="1" source="PKU2KmVBedQqIv4Sg6Ox-121" target="PKU2KmVBedQqIv4Sg6Ox-102">
          <mxGeometry relative="1" as="geometry" />
        </mxCell>
        <mxCell id="PKU2KmVBedQqIv4Sg6Ox-97" value="Set full resolution if the shot confo group is in confo render" style="rounded=1;whiteSpace=wrap;html=1;shadow=0;glass=0;comic=0;labelBackgroundColor=none;startSize=50;strokeColor=#666666;strokeWidth=2;fillColor=#f5f5f5;fontFamily=Helvetica;fontSize=12;fontColor=#413565;align=center;verticalAlign=middle;gradientDirection=north;arcSize=2;fontStyle=0" vertex="1" parent="1">
          <mxGeometry x="1201.4285714285713" y="870" width="120" height="60" as="geometry" />
        </mxCell>
        <mxCell id="PKU2KmVBedQqIv4Sg6Ox-98" style="edgeStyle=orthogonalEdgeStyle;rounded=1;comic=0;jumpStyle=none;html=1;entryX=0.5;entryY=0;shadow=0;startArrow=none;startFill=0;startSize=50;endArrow=classic;endFill=1;jettySize=auto;orthogonalLoop=1;strokeColor=#666666;strokeWidth=2;fontFamily=Helvetica;fontSize=24;fontColor=#413565;exitX=0.5;exitY=1;" edge="1" parent="1" source="PKU2KmVBedQqIv4Sg6Ox-102" target="PKU2KmVBedQqIv4Sg6Ox-104">
          <mxGeometry relative="1" as="geometry" />
        </mxCell>
        <mxCell id="PKU2KmVBedQqIv4Sg6Ox-99" value="NO" style="text;html=1;resizable=0;points=[];align=center;verticalAlign=middle;labelBackgroundColor=#ffffff;fontColor=#413565;fontStyle=1" vertex="1" connectable="0" parent="PKU2KmVBedQqIv4Sg6Ox-98">
          <mxGeometry x="-0.86" y="-3" relative="1" as="geometry">
            <mxPoint x="13" y="-4" as="offset" />
          </mxGeometry>
        </mxCell>
        <mxCell id="PKU2KmVBedQqIv4Sg6Ox-100" style="edgeStyle=orthogonalEdgeStyle;rounded=1;comic=0;jumpStyle=none;html=1;entryX=0.5;entryY=0;shadow=0;startArrow=none;startFill=0;startSize=50;endArrow=classic;endFill=1;jettySize=auto;orthogonalLoop=1;strokeColor=#666666;strokeWidth=2;fontFamily=Helvetica;fontSize=24;fontColor=#413565;" edge="1" parent="1" source="PKU2KmVBedQqIv4Sg6Ox-102" target="PKU2KmVBedQqIv4Sg6Ox-106">
          <mxGeometry relative="1" as="geometry" />
        </mxCell>
        <mxCell id="PKU2KmVBedQqIv4Sg6Ox-101" value="YES" style="text;html=1;resizable=0;points=[];align=center;verticalAlign=middle;labelBackgroundColor=#ffffff;fontColor=#413565;fontStyle=1" vertex="1" connectable="0" parent="PKU2KmVBedQqIv4Sg6Ox-100">
          <mxGeometry x="-0.6338" y="-4" relative="1" as="geometry">
            <mxPoint x="-36" y="-14" as="offset" />
          </mxGeometry>
        </mxCell>
        <mxCell id="PKU2KmVBedQqIv4Sg6Ox-102" value="Is confo Render Group ?" style="rhombus;whiteSpace=wrap;html=1;rounded=1;shadow=0;glass=0;comic=0;labelBackgroundColor=none;startSize=50;strokeColor=#b85450;strokeWidth=2;fillColor=#f8cecc;fontFamily=Helvetica;fontSize=12;fontColor=#413565;align=center;verticalAlign=middle;gradientDirection=north;arcSize=5;aspect=fixed;fontStyle=0" vertex="1" parent="1">
          <mxGeometry x="1201.4285714285713" y="1170" width="120" height="120" as="geometry" />
        </mxCell>
        <mxCell id="PKU2KmVBedQqIv4Sg6Ox-103" style="edgeStyle=orthogonalEdgeStyle;rounded=1;comic=0;jumpStyle=none;html=1;entryX=0.5;entryY=0;shadow=0;startArrow=none;startFill=0;startSize=50;endArrow=classic;endFill=1;jettySize=auto;orthogonalLoop=1;strokeColor=#666666;strokeWidth=2;fontFamily=Helvetica;fontSize=24;fontColor=#413565;exitX=0.5;exitY=1;" edge="1" parent="1" source="PKU2KmVBedQqIv4Sg6Ox-104" target="PKU2KmVBedQqIv4Sg6Ox-124">
          <mxGeometry relative="1" as="geometry" />
        </mxCell>
        <mxCell id="PKU2KmVBedQqIv4Sg6Ox-104" value="Check Complete" style="rounded=1;whiteSpace=wrap;html=1;shadow=0;glass=0;comic=0;labelBackgroundColor=none;startSize=50;strokeColor=#82b366;strokeWidth=2;fillColor=#d5e8d4;fontFamily=Helvetica;fontSize=12;fontColor=#413565;align=center;verticalAlign=middle;gradientDirection=north;arcSize=5;fontStyle=0" vertex="1" parent="1">
          <mxGeometry x="1201.4285714285713" y="1490" width="120" height="60" as="geometry" />
        </mxCell>
        <mxCell id="PKU2KmVBedQqIv4Sg6Ox-105" style="edgeStyle=orthogonalEdgeStyle;rounded=1;comic=0;jumpStyle=none;html=1;entryX=0.75;entryY=0;shadow=0;startArrow=none;startFill=0;startSize=50;endArrow=classic;endFill=1;jettySize=auto;orthogonalLoop=1;strokeColor=#666666;strokeWidth=2;fontFamily=Helvetica;fontSize=24;fontColor=#413565;exitX=0.5;exitY=1;" edge="1" parent="1" source="PKU2KmVBedQqIv4Sg6Ox-106" target="PKU2KmVBedQqIv4Sg6Ox-104">
          <mxGeometry relative="1" as="geometry" />
        </mxCell>
        <mxCell id="PKU2KmVBedQqIv4Sg6Ox-106" value="Set resolution&lt;br&gt;to full&lt;br&gt;" style="rounded=1;whiteSpace=wrap;html=1;shadow=0;glass=0;comic=0;labelBackgroundColor=none;startSize=50;strokeColor=#6c8ebf;strokeWidth=2;fillColor=#dae8fc;fontFamily=Helvetica;fontSize=12;fontColor=#413565;align=center;verticalAlign=middle;gradientDirection=north;arcSize=15;fontStyle=0" vertex="1" parent="1">
          <mxGeometry x="1441.4285714285713" y="1310" width="120" height="60" as="geometry" />
        </mxCell>
        <mxCell id="PKU2KmVBedQqIv4Sg6Ox-107" style="edgeStyle=orthogonalEdgeStyle;rounded=1;comic=0;jumpStyle=none;html=1;entryX=0.5;entryY=0;shadow=0;startArrow=none;startFill=0;startSize=50;endArrow=classic;endFill=1;jettySize=auto;orthogonalLoop=1;strokeColor=#666666;strokeWidth=2;fontFamily=Helvetica;fontSize=24;fontColor=#413565;" edge="1" parent="1" source="PKU2KmVBedQqIv4Sg6Ox-119" target="PKU2KmVBedQqIv4Sg6Ox-113">
          <mxGeometry relative="1" as="geometry" />
        </mxCell>
        <mxCell id="PKU2KmVBedQqIv4Sg6Ox-108" value="Update Confo Group" style="rounded=1;whiteSpace=wrap;html=1;shadow=0;glass=0;comic=0;labelBackgroundColor=none;startSize=50;strokeColor=#666666;strokeWidth=2;fillColor=#f5f5f5;fontFamily=Helvetica;fontSize=12;fontColor=#413565;align=center;verticalAlign=middle;gradientDirection=north;arcSize=2;fontStyle=0" vertex="1" parent="1">
          <mxGeometry x="1841.4285714285713" y="870" width="120" height="60" as="geometry" />
        </mxCell>
        <mxCell id="PKU2KmVBedQqIv4Sg6Ox-109" style="edgeStyle=orthogonalEdgeStyle;rounded=1;comic=0;jumpStyle=none;html=1;entryX=0.5;entryY=0;shadow=0;startArrow=none;startFill=0;startSize=50;endArrow=classic;endFill=1;jettySize=auto;orthogonalLoop=1;strokeColor=#666666;strokeWidth=2;fontFamily=Helvetica;fontSize=24;fontColor=#413565;exitX=0.5;exitY=1;" edge="1" parent="1" source="PKU2KmVBedQqIv4Sg6Ox-113" target="PKU2KmVBedQqIv4Sg6Ox-116">
          <mxGeometry relative="1" as="geometry" />
        </mxCell>
        <mxCell id="PKU2KmVBedQqIv4Sg6Ox-110" value="NO" style="text;html=1;resizable=0;points=[];align=center;verticalAlign=middle;labelBackgroundColor=#ffffff;fontColor=#413565;fontStyle=1" vertex="1" connectable="0" parent="PKU2KmVBedQqIv4Sg6Ox-109">
          <mxGeometry x="-0.86" y="-3" relative="1" as="geometry">
            <mxPoint x="13" y="-4" as="offset" />
          </mxGeometry>
        </mxCell>
        <mxCell id="PKU2KmVBedQqIv4Sg6Ox-111" style="edgeStyle=orthogonalEdgeStyle;rounded=1;comic=0;jumpStyle=none;html=1;entryX=0.5;entryY=0;shadow=0;startArrow=none;startFill=0;startSize=50;endArrow=classic;endFill=1;jettySize=auto;orthogonalLoop=1;strokeColor=#666666;strokeWidth=2;fontFamily=Helvetica;fontSize=24;fontColor=#413565;" edge="1" parent="1" source="PKU2KmVBedQqIv4Sg6Ox-113" target="PKU2KmVBedQqIv4Sg6Ox-118">
          <mxGeometry relative="1" as="geometry" />
        </mxCell>
        <mxCell id="PKU2KmVBedQqIv4Sg6Ox-112" value="YES" style="text;html=1;resizable=0;points=[];align=center;verticalAlign=middle;labelBackgroundColor=#ffffff;fontColor=#413565;fontStyle=1" vertex="1" connectable="0" parent="PKU2KmVBedQqIv4Sg6Ox-111">
          <mxGeometry x="-0.6338" y="-4" relative="1" as="geometry">
            <mxPoint x="-36" y="-14" as="offset" />
          </mxGeometry>
        </mxCell>
        <mxCell id="PKU2KmVBedQqIv4Sg6Ox-113" value="Is new confo group is available?" style="rhombus;whiteSpace=wrap;html=1;rounded=1;shadow=0;glass=0;comic=0;labelBackgroundColor=none;startSize=50;strokeColor=#b85450;strokeWidth=2;fillColor=#f8cecc;fontFamily=Helvetica;fontSize=12;fontColor=#413565;align=center;verticalAlign=middle;gradientDirection=north;arcSize=5;aspect=fixed;fontStyle=0" vertex="1" parent="1">
          <mxGeometry x="1841.4285714285713" y="1170" width="120" height="120" as="geometry" />
        </mxCell>
        <mxCell id="PKU2KmVBedQqIv4Sg6Ox-114" style="edgeStyle=orthogonalEdgeStyle;rounded=1;comic=0;jumpStyle=none;html=1;entryX=0.5;entryY=0;shadow=0;startArrow=none;startFill=0;startSize=50;endArrow=classic;endFill=1;jettySize=auto;orthogonalLoop=1;strokeColor=#666666;strokeWidth=2;fontFamily=Helvetica;fontSize=24;fontColor=#413565;exitX=0.5;exitY=1;" edge="1" parent="1" source="PKU2KmVBedQqIv4Sg6Ox-116" target="PKU2KmVBedQqIv4Sg6Ox-124">
          <mxGeometry relative="1" as="geometry" />
        </mxCell>
        <mxCell id="PKU2KmVBedQqIv4Sg6Ox-115" style="edgeStyle=orthogonalEdgeStyle;rounded=1;comic=0;jumpStyle=none;html=1;entryX=1;entryY=0.5;shadow=0;startArrow=none;startFill=0;startSize=50;endArrow=classic;endFill=1;jettySize=auto;orthogonalLoop=1;strokeColor=#666666;strokeWidth=2;fontFamily=Helvetica;fontSize=24;fontColor=#413565;dashed=1;" edge="1" parent="1" source="PKU2KmVBedQqIv4Sg6Ox-116" target="PKU2KmVBedQqIv4Sg6Ox-97">
          <mxGeometry relative="1" as="geometry" />
        </mxCell>
        <mxCell id="PKU2KmVBedQqIv4Sg6Ox-116" value="Check Complete" style="rounded=1;whiteSpace=wrap;html=1;shadow=0;glass=0;comic=0;labelBackgroundColor=none;startSize=50;strokeColor=#82b366;strokeWidth=2;fillColor=#d5e8d4;fontFamily=Helvetica;fontSize=12;fontColor=#413565;align=center;verticalAlign=middle;gradientDirection=north;arcSize=5;fontStyle=0" vertex="1" parent="1">
          <mxGeometry x="1841.4285714285713" y="1490" width="120" height="60" as="geometry" />
        </mxCell>
        <mxCell id="PKU2KmVBedQqIv4Sg6Ox-117" style="edgeStyle=orthogonalEdgeStyle;rounded=1;comic=0;jumpStyle=none;html=1;entryX=0.75;entryY=0;shadow=0;startArrow=none;startFill=0;startSize=50;endArrow=classic;endFill=1;jettySize=auto;orthogonalLoop=1;strokeColor=#666666;strokeWidth=2;fontFamily=Helvetica;fontSize=24;fontColor=#413565;exitX=0.5;exitY=1;" edge="1" parent="1" source="PKU2KmVBedQqIv4Sg6Ox-118" target="PKU2KmVBedQqIv4Sg6Ox-116">
          <mxGeometry relative="1" as="geometry" />
        </mxCell>
        <mxCell id="PKU2KmVBedQqIv4Sg6Ox-118" value="update it&lt;br&gt;" style="rounded=1;whiteSpace=wrap;html=1;shadow=0;glass=0;comic=0;labelBackgroundColor=none;startSize=50;strokeColor=#6c8ebf;strokeWidth=2;fillColor=#dae8fc;fontFamily=Helvetica;fontSize=12;fontColor=#413565;align=center;verticalAlign=middle;gradientDirection=north;arcSize=15;fontStyle=0" vertex="1" parent="1">
          <mxGeometry x="2081.4285714285716" y="1310" width="120" height="60" as="geometry" />
        </mxCell>
        <mxCell id="PKU2KmVBedQqIv4Sg6Ox-119" value="Check if new confo group &quot;type&quot; and versions are available&lt;br&gt;" style="rounded=1;whiteSpace=wrap;html=1;shadow=0;glass=0;comic=0;labelBackgroundColor=none;startSize=50;strokeColor=#6c8ebf;strokeWidth=2;fillColor=#dae8fc;fontFamily=Helvetica;fontSize=12;fontColor=#413565;align=center;verticalAlign=middle;gradientDirection=north;arcSize=15;fontStyle=0" vertex="1" parent="1">
          <mxGeometry x="1841.4285714285713" y="1010" width="120" height="60" as="geometry" />
        </mxCell>
        <mxCell id="PKU2KmVBedQqIv4Sg6Ox-120" style="edgeStyle=orthogonalEdgeStyle;rounded=1;comic=0;jumpStyle=none;html=1;entryX=0.5;entryY=0;shadow=0;startArrow=none;startFill=0;startSize=50;endArrow=classic;endFill=1;jettySize=auto;orthogonalLoop=1;strokeColor=#666666;strokeWidth=2;fontFamily=Helvetica;fontSize=24;fontColor=#413565;" edge="1" parent="1" source="PKU2KmVBedQqIv4Sg6Ox-108" target="PKU2KmVBedQqIv4Sg6Ox-119">
          <mxGeometry relative="1" as="geometry">
            <mxPoint x="1901.4285714285713" y="990" as="sourcePoint" />
            <mxPoint x="1901.4285714285713" y="1170" as="targetPoint" />
          </mxGeometry>
        </mxCell>
        <mxCell id="PKU2KmVBedQqIv4Sg6Ox-121" value="Check the Confo Group Task&lt;br&gt;" style="rounded=1;whiteSpace=wrap;html=1;shadow=0;glass=0;comic=0;labelBackgroundColor=none;startSize=50;strokeColor=#6c8ebf;strokeWidth=2;fillColor=#dae8fc;fontFamily=Helvetica;fontSize=12;fontColor=#413565;align=center;verticalAlign=middle;gradientDirection=north;arcSize=15;fontStyle=0" vertex="1" parent="1">
          <mxGeometry x="1201.4285714285713" y="1010" width="120" height="60" as="geometry" />
        </mxCell>
        <mxCell id="PKU2KmVBedQqIv4Sg6Ox-122" style="edgeStyle=orthogonalEdgeStyle;rounded=1;comic=0;jumpStyle=none;html=1;entryX=0.5;entryY=0;shadow=0;startArrow=none;startFill=0;startSize=50;endArrow=classic;endFill=1;jettySize=auto;orthogonalLoop=1;strokeColor=#666666;strokeWidth=2;fontFamily=Helvetica;fontSize=24;fontColor=#413565;" edge="1" parent="1" source="PKU2KmVBedQqIv4Sg6Ox-97" target="PKU2KmVBedQqIv4Sg6Ox-121">
          <mxGeometry relative="1" as="geometry">
            <mxPoint x="1261.4285714285713" y="930" as="sourcePoint" />
            <mxPoint x="1261.4285714285713" y="1170" as="targetPoint" />
          </mxGeometry>
        </mxCell>
        <mxCell id="PKU2KmVBedQqIv4Sg6Ox-123" style="edgeStyle=orthogonalEdgeStyle;rounded=1;comic=0;jumpStyle=none;html=1;exitX=0;exitY=0.75;entryX=0;entryY=0.75;shadow=0;startArrow=none;startFill=0;startSize=50;endArrow=classic;endFill=1;jettySize=auto;orthogonalLoop=1;strokeColor=#666666;strokeWidth=2;fontFamily=Helvetica;fontSize=24;fontColor=#413565;" edge="1" parent="1" source="PKU2KmVBedQqIv4Sg6Ox-108" target="PKU2KmVBedQqIv4Sg6Ox-108">
          <mxGeometry relative="1" as="geometry" />
        </mxCell>
        <mxCell id="PKU2KmVBedQqIv4Sg6Ox-124" value="&lt;span&gt;NEXT PROCESS&lt;/span&gt;" style="ellipse;whiteSpace=wrap;html=1;rounded=1;shadow=0;glass=0;comic=0;startSize=50;strokeColor=#666666;strokeWidth=2;fillColor=#f5f5f5;fontSize=12;fontColor=#413565;align=center;fontStyle=1;gradientDirection=north;labelBackgroundColor=none;arcSize=5;" vertex="1" parent="1">
          <mxGeometry x="1501.4285714285713" y="1770" width="160" height="80" as="geometry" />
        </mxCell>
      </root>
    </mxGraphModel>
  </diagram>
</mxfile>
